<mxfile host="app.diagrams.net" agent="Mozilla/5.0 (Windows NT 10.0; Win64; x64) AppleWebKit/537.36 (KHTML, like Gecko) Chrome/139.0.0.0 Safari/537.36 Edg/139.0.0.0" version="28.1.1">
  <diagram name="第 1 页" id="JZmE4Uu5j5fxakrlWQa2">
    <mxGraphModel dx="1504" dy="704" grid="1" gridSize="10" guides="1" tooltips="1" connect="1" arrows="1" fold="1" page="1" pageScale="1" pageWidth="827" pageHeight="1169" math="0" shadow="0">
      <root>
        <mxCell id="0" />
        <mxCell id="1" parent="0" />
        <mxCell id="-Pn_RpcTXpfcwF1fFL6O-1" value="&lt;font face=&quot;Comic Sans MS&quot; style=&quot;font-size: 19px;&quot;&gt;Client&lt;/font&gt;" style="rounded=1;whiteSpace=wrap;html=1;sketch=1;curveFitting=1;jiggle=2;glass=1;shadow=1;" parent="1" vertex="1">
          <mxGeometry x="50" y="100" width="130" height="60" as="geometry" />
        </mxCell>
        <mxCell id="IiRfQ46VNGPQSwlzATxh-1" value="&lt;font face=&quot;Comic Sans MS&quot; style=&quot;font-size: 19px;&quot;&gt;Client&lt;/font&gt;" style="rounded=1;whiteSpace=wrap;html=1;sketch=1;curveFitting=1;jiggle=2;glass=1;shadow=1;" vertex="1" parent="1">
          <mxGeometry x="250" y="100" width="130" height="60" as="geometry" />
        </mxCell>
        <mxCell id="IiRfQ46VNGPQSwlzATxh-2" value="&lt;font face=&quot;Comic Sans MS&quot; style=&quot;font-size: 19px;&quot;&gt;Client&lt;/font&gt;" style="rounded=1;whiteSpace=wrap;html=1;sketch=1;curveFitting=1;jiggle=2;glass=1;shadow=1;" vertex="1" parent="1">
          <mxGeometry x="450" y="100" width="130" height="60" as="geometry" />
        </mxCell>
        <mxCell id="IiRfQ46VNGPQSwlzATxh-3" value="" style="edgeStyle=none;orthogonalLoop=1;jettySize=auto;html=1;rounded=0;fontFamily=Architects Daughter;fontSource=https%3A%2F%2Ffonts.googleapis.com%2Fcss%3Ffamily%3DArchitects%2BDaughter;fontSize=16;startSize=14;endArrow=open;endSize=14;sourcePerimeterSpacing=8;targetPerimeterSpacing=8;curved=1;dashed=1;" edge="1" parent="1">
          <mxGeometry width="140" relative="1" as="geometry">
            <mxPoint x="114.5" y="160" as="sourcePoint" />
            <mxPoint x="114.5" y="250" as="targetPoint" />
            <Array as="points" />
          </mxGeometry>
        </mxCell>
        <mxCell id="IiRfQ46VNGPQSwlzATxh-4" value="" style="edgeStyle=none;orthogonalLoop=1;jettySize=auto;html=1;rounded=0;fontFamily=Architects Daughter;fontSource=https%3A%2F%2Ffonts.googleapis.com%2Fcss%3Ffamily%3DArchitects%2BDaughter;fontSize=16;startSize=14;endArrow=open;endSize=14;sourcePerimeterSpacing=8;targetPerimeterSpacing=8;curved=1;dashed=1;" edge="1" parent="1">
          <mxGeometry width="140" relative="1" as="geometry">
            <mxPoint x="314.5" y="160" as="sourcePoint" />
            <mxPoint x="314.5" y="250" as="targetPoint" />
            <Array as="points" />
          </mxGeometry>
        </mxCell>
        <mxCell id="IiRfQ46VNGPQSwlzATxh-5" value="" style="edgeStyle=none;orthogonalLoop=1;jettySize=auto;html=1;rounded=0;fontFamily=Architects Daughter;fontSource=https%3A%2F%2Ffonts.googleapis.com%2Fcss%3Ffamily%3DArchitects%2BDaughter;fontSize=16;startSize=14;endArrow=open;endSize=14;sourcePerimeterSpacing=8;targetPerimeterSpacing=8;curved=1;dashed=1;" edge="1" parent="1">
          <mxGeometry width="140" relative="1" as="geometry">
            <mxPoint x="514.5" y="160" as="sourcePoint" />
            <mxPoint x="514.5" y="250" as="targetPoint" />
            <Array as="points" />
          </mxGeometry>
        </mxCell>
        <mxCell id="IiRfQ46VNGPQSwlzATxh-6" value="&lt;font face=&quot;Comic Sans MS&quot;&gt;&lt;span style=&quot;font-size: 18px;&quot;&gt;分发请求&lt;/span&gt;&lt;/font&gt;" style="shape=note;whiteSpace=wrap;html=1;backgroundOutline=1;fontColor=#000000;darkOpacity=0.05;fillColor=none;strokeColor=none;fillStyle=solid;direction=west;gradientDirection=north;gradientColor=#FFF2A1;shadow=1;size=20;pointerEvents=1;fontFamily=Architects Daughter;fontSource=https%3A%2F%2Ffonts.googleapis.com%2Fcss%3Ffamily%3DArchitects%2BDaughter;" vertex="1" parent="1">
          <mxGeometry x="170" y="180" width="90" height="60" as="geometry" />
        </mxCell>
        <mxCell id="IiRfQ46VNGPQSwlzATxh-13" style="edgeStyle=none;curved=1;rounded=0;orthogonalLoop=1;jettySize=auto;html=1;exitX=0.5;exitY=1;exitDx=0;exitDy=0;entryX=0.5;entryY=0;entryDx=0;entryDy=0;fontFamily=Architects Daughter;fontSource=https%3A%2F%2Ffonts.googleapis.com%2Fcss%3Ffamily%3DArchitects%2BDaughter;fontSize=16;startSize=14;endArrow=open;endSize=14;sourcePerimeterSpacing=8;targetPerimeterSpacing=8;" edge="1" parent="1" source="IiRfQ46VNGPQSwlzATxh-7" target="IiRfQ46VNGPQSwlzATxh-11">
          <mxGeometry relative="1" as="geometry" />
        </mxCell>
        <mxCell id="IiRfQ46VNGPQSwlzATxh-17" style="edgeStyle=none;curved=1;rounded=0;orthogonalLoop=1;jettySize=auto;html=1;exitX=0.5;exitY=1;exitDx=0;exitDy=0;entryX=0.5;entryY=0;entryDx=0;entryDy=0;fontFamily=Architects Daughter;fontSource=https%3A%2F%2Ffonts.googleapis.com%2Fcss%3Ffamily%3DArchitects%2BDaughter;fontSize=16;startSize=14;endArrow=open;endSize=14;sourcePerimeterSpacing=8;targetPerimeterSpacing=8;" edge="1" parent="1" source="IiRfQ46VNGPQSwlzATxh-7" target="IiRfQ46VNGPQSwlzATxh-12">
          <mxGeometry relative="1" as="geometry" />
        </mxCell>
        <mxCell id="IiRfQ46VNGPQSwlzATxh-7" value="&lt;font style=&quot;font-size: 18px;&quot; face=&quot;Comic Sans MS&quot;&gt;LCache节点&lt;/font&gt;" style="rounded=0;whiteSpace=wrap;html=1;fontFamily=Architects Daughter;fontSource=https%3A%2F%2Ffonts.googleapis.com%2Fcss%3Ffamily%3DArchitects%2BDaughter;" vertex="1" parent="1">
          <mxGeometry x="50" y="250" width="130" height="60" as="geometry" />
        </mxCell>
        <mxCell id="IiRfQ46VNGPQSwlzATxh-15" style="edgeStyle=none;curved=1;rounded=0;orthogonalLoop=1;jettySize=auto;html=1;exitX=0.5;exitY=1;exitDx=0;exitDy=0;fontFamily=Architects Daughter;fontSource=https%3A%2F%2Ffonts.googleapis.com%2Fcss%3Ffamily%3DArchitects%2BDaughter;fontSize=16;startSize=14;endArrow=open;endSize=14;sourcePerimeterSpacing=8;targetPerimeterSpacing=8;" edge="1" parent="1" source="IiRfQ46VNGPQSwlzATxh-8">
          <mxGeometry relative="1" as="geometry">
            <mxPoint x="210" y="370" as="targetPoint" />
          </mxGeometry>
        </mxCell>
        <mxCell id="IiRfQ46VNGPQSwlzATxh-18" style="edgeStyle=none;curved=1;rounded=0;orthogonalLoop=1;jettySize=auto;html=1;exitX=0.5;exitY=1;exitDx=0;exitDy=0;entryX=0.5;entryY=0;entryDx=0;entryDy=0;fontFamily=Architects Daughter;fontSource=https%3A%2F%2Ffonts.googleapis.com%2Fcss%3Ffamily%3DArchitects%2BDaughter;fontSize=16;startSize=14;endArrow=open;endSize=14;sourcePerimeterSpacing=8;targetPerimeterSpacing=8;" edge="1" parent="1" source="IiRfQ46VNGPQSwlzATxh-8" target="IiRfQ46VNGPQSwlzATxh-12">
          <mxGeometry relative="1" as="geometry" />
        </mxCell>
        <mxCell id="IiRfQ46VNGPQSwlzATxh-8" value="&lt;font style=&quot;font-size: 18px;&quot; face=&quot;Comic Sans MS&quot;&gt;LCache节点&lt;/font&gt;" style="rounded=0;whiteSpace=wrap;html=1;fontFamily=Architects Daughter;fontSource=https%3A%2F%2Ffonts.googleapis.com%2Fcss%3Ffamily%3DArchitects%2BDaughter;" vertex="1" parent="1">
          <mxGeometry x="250" y="250" width="130" height="60" as="geometry" />
        </mxCell>
        <mxCell id="IiRfQ46VNGPQSwlzATxh-16" style="edgeStyle=none;curved=1;rounded=0;orthogonalLoop=1;jettySize=auto;html=1;exitX=0.5;exitY=1;exitDx=0;exitDy=0;entryX=0.5;entryY=0;entryDx=0;entryDy=0;fontFamily=Architects Daughter;fontSource=https%3A%2F%2Ffonts.googleapis.com%2Fcss%3Ffamily%3DArchitects%2BDaughter;fontSize=16;startSize=14;endArrow=open;endSize=14;sourcePerimeterSpacing=8;targetPerimeterSpacing=8;" edge="1" parent="1" source="IiRfQ46VNGPQSwlzATxh-9" target="IiRfQ46VNGPQSwlzATxh-11">
          <mxGeometry relative="1" as="geometry" />
        </mxCell>
        <mxCell id="IiRfQ46VNGPQSwlzATxh-20" style="edgeStyle=none;curved=1;rounded=0;orthogonalLoop=1;jettySize=auto;html=1;exitX=0.5;exitY=1;exitDx=0;exitDy=0;entryX=0.5;entryY=0;entryDx=0;entryDy=0;fontFamily=Architects Daughter;fontSource=https%3A%2F%2Ffonts.googleapis.com%2Fcss%3Ffamily%3DArchitects%2BDaughter;fontSize=16;startSize=14;endArrow=open;endSize=14;sourcePerimeterSpacing=8;targetPerimeterSpacing=8;" edge="1" parent="1" source="IiRfQ46VNGPQSwlzATxh-9" target="IiRfQ46VNGPQSwlzATxh-12">
          <mxGeometry relative="1" as="geometry" />
        </mxCell>
        <mxCell id="IiRfQ46VNGPQSwlzATxh-9" value="&lt;font style=&quot;font-size: 18px;&quot; face=&quot;Comic Sans MS&quot;&gt;LCache节点&lt;/font&gt;" style="rounded=0;whiteSpace=wrap;html=1;fontFamily=Architects Daughter;fontSource=https%3A%2F%2Ffonts.googleapis.com%2Fcss%3Ffamily%3DArchitects%2BDaughter;" vertex="1" parent="1">
          <mxGeometry x="450" y="250" width="130" height="60" as="geometry" />
        </mxCell>
        <mxCell id="IiRfQ46VNGPQSwlzATxh-11" value="&lt;font face=&quot;Comic Sans MS&quot;&gt;&lt;span style=&quot;font-size: 18px;&quot;&gt;数据库DB&lt;/span&gt;&lt;/font&gt;" style="rounded=0;whiteSpace=wrap;html=1;fontFamily=Architects Daughter;fontSource=https%3A%2F%2Ffonts.googleapis.com%2Fcss%3Ffamily%3DArchitects%2BDaughter;" vertex="1" parent="1">
          <mxGeometry x="150" y="370" width="130" height="60" as="geometry" />
        </mxCell>
        <mxCell id="IiRfQ46VNGPQSwlzATxh-12" value="&lt;font face=&quot;Comic Sans MS&quot;&gt;&lt;span style=&quot;font-size: 18px;&quot;&gt;etcd&lt;/span&gt;&lt;/font&gt;" style="rounded=0;whiteSpace=wrap;html=1;fontFamily=Architects Daughter;fontSource=https%3A%2F%2Ffonts.googleapis.com%2Fcss%3Ffamily%3DArchitects%2BDaughter;" vertex="1" parent="1">
          <mxGeometry x="349" y="370" width="130" height="60" as="geometry" />
        </mxCell>
      </root>
    </mxGraphModel>
  </diagram>
</mxfile>
